
<svg xmlns="http://www.w3.org/2000/svg" xmlns:xlink="http://www.w3.org/1999/xlink" version="1.1" id="Layer_1" x="0" y="0" width="100%" height="auto" viewBox="0 0 286 142.5" enable-background="new 0 0 286 142.5" preserveAspectRatio="xMinYMin meet">
  <text transform="matrix(0.88 0 0 1 68.23 190.5059)" fill="#939598" font-family="'Univers-CondensedLight'" font-size="29.97">
    University of Missouri–St. Louis
  </text>
  <path fill="#FFFFFF" d="M32.89 8.27V118.57c0 2.99 0.93 4.72 4.39 4.72 3.23 0 4.16-1.73 4.16-4.72V8.27h25.88v104.02c0 19.19-2.08 24.39-29.34 24.39 -28.65 0-30.73-4.41-30.73-24.38V8.27H32.89z"/>
  <path fill="#FFFFFF" d="M102.78 8.13l10.48 58.38h1.86l10.71-58.38h28.41v127.77h-22.58l2.09-77.11h-2.56l-10.95 77.11h-12.1L97.19 58.79h-2.56l2.33 77.11H74.37V8.13H102.78z"/>
  <path fill="#FFFFFF" d="M221.02 51.71h-25.65V25.75c0-2.98-1.15-4.56-4.38-4.56 -3.47 0-4.16 1.58-4.16 4.56v26.28c0 3.94 0.23 4.88 6.47 7.56l15.71 6.45c10.63 4.4 12.02 9.75 12.02 17.46v28.65c0 19.98-2.31 24.38-30.73 24.38 -27.27 0-29.12-5.35-29.12-24.38V81.92h25.65v36.51c0 2.99 0.69 4.72 4.16 4.72 3.23 0 4.38-1.73 4.38-4.72V84.6c0-3.93-0.23-4.72-6.46-7.4l-15.94-6.61c-10.86-4.55-11.79-9.75-11.79-17.3V32.05c0-19.67 2.08-24.39 29.81-24.39s30.04 4.72 30.04 24.39V51.71z"/>
  <path fill="#FFFFFF" d="M253.81 8.13v110.76h27.67v17.02H228.16V8.13H253.81z"/>
</svg>
